<mxfile host="app.diagrams.net" modified="2023-10-20T05:38:42.789Z" agent="Mozilla/5.0 (Windows NT 10.0; Win64; x64) AppleWebKit/537.36 (KHTML, like Gecko) Chrome/116.0.0.0 Safari/537.36" etag="K7m9q0tQDQs96Stnj9MS" version="22.0.5" type="device">
  <diagram name="第 1 页" id="eLQKWEeW7ijS_6r7CKka">
    <mxGraphModel dx="164" dy="249" grid="1" gridSize="10" guides="1" tooltips="1" connect="1" arrows="1" fold="1" page="1" pageScale="1" pageWidth="827" pageHeight="1169" math="0" shadow="0">
      <root>
        <mxCell id="0" />
        <mxCell id="1" parent="0" />
        <UserObject label="主管(&lt;u&gt;主管編號&lt;/u&gt;)" placeholders="1" name="Variable" id="ccIfEPNU1zYb8bQYz0qv-6">
          <mxCell style="text;html=1;strokeColor=none;fillColor=none;align=left;verticalAlign=middle;whiteSpace=wrap;overflow=hidden;" vertex="1" parent="1">
            <mxGeometry x="520" y="520" width="90" height="20" as="geometry" />
          </mxCell>
        </UserObject>
        <UserObject label="員工(&lt;u&gt;員工編號&lt;/u&gt;, &lt;u&gt;主管編號&lt;/u&gt;)" placeholders="1" name="Variable" id="ccIfEPNU1zYb8bQYz0qv-7">
          <mxCell style="text;html=1;strokeColor=none;fillColor=none;align=left;verticalAlign=middle;whiteSpace=wrap;overflow=hidden;" vertex="1" parent="1">
            <mxGeometry x="520" y="560" width="150" height="20" as="geometry" />
          </mxCell>
        </UserObject>
      </root>
    </mxGraphModel>
  </diagram>
</mxfile>
